<svg width="16" height="17" viewBox="0 0 16 17" fill="none" xmlns="http://www.w3.org/2000/svg">
<path d="M15.5424 7.69175L12.1994 7.40227L12.1625 7.21148L15.1538 5.59963C15.2391 5.55411 15.3054 5.47625 15.3396 5.38131C15.3738 5.28638 15.3735 5.18122 15.3389 5.08648C15.303 4.99159 15.2344 4.91491 15.1473 4.87211C15.0602 4.82931 14.961 4.82363 14.8701 4.85622L11.6691 5.91543C11.6259 5.84306 11.5827 5.76411 11.5396 5.69832L13.7045 2.96805C13.77 2.89568 13.8066 2.79897 13.8066 2.69832C13.8066 2.59768 13.77 2.50096 13.7045 2.42858C13.6356 2.35822 13.5439 2.31893 13.4485 2.31893C13.3531 2.31893 13.2614 2.35822 13.1925 2.42858L10.639 4.73779L10.4848 4.63254L11.5334 1.23121C11.5626 1.13589 11.5572 1.03238 11.5183 0.941063C11.4795 0.849744 11.4101 0.777227 11.3236 0.73779C11.2374 0.696114 11.1394 0.691304 11.0499 0.724348C10.9604 0.757392 10.8862 0.825777 10.8425 0.915424L9.28208 4.08648L9.01074 4.00095L8.73322 0.435164C8.72546 0.334529 8.68234 0.240708 8.61261 0.172421C8.54287 0.104135 8.45158 0.0664045 8.35692 0.0667442C8.26267 0.0678946 8.17218 0.106131 8.10274 0.174128C8.0333 0.242125 7.98989 0.335089 7.98077 0.435164L7.7031 4.00095L7.52437 4.03385L6.01315 0.843056C5.96942 0.753277 5.89606 0.684034 5.80715 0.648777C5.71825 0.61352 5.62029 0.614768 5.5322 0.65227C5.44465 0.690503 5.37374 0.762515 5.33373 0.853957C5.29373 0.9454 5.2875 1.04956 5.31626 1.14569L6.30934 4.56674L6.10575 4.70491L3.55222 2.39569C3.48264 2.32679 3.39133 2.28851 3.29639 2.28851C3.20144 2.28851 3.10999 2.32679 3.0404 2.39569C2.97483 2.46806 2.93816 2.56478 2.93816 2.66543C2.93816 2.76608 2.97483 2.86279 3.0404 2.93517L5.21146 5.66543C5.17302 5.71762 5.13788 5.77258 5.10651 5.8299L1.924 4.70491C1.83299 4.67544 1.73498 4.68261 1.64859 4.72504C1.5622 4.76748 1.49342 4.84224 1.45525 4.93516C1.41816 5.02818 1.4154 5.1327 1.44742 5.22783C1.47943 5.32296 1.54388 5.4017 1.62796 5.44832L4.60086 7.11279C4.57585 7.19657 4.55723 7.28238 4.5453 7.36937L1.20242 7.65885C1.10808 7.6701 1.02076 7.7178 0.95713 7.79295C0.893497 7.86809 0.857914 7.96548 0.856995 8.06674C0.858073 8.16728 0.893835 8.26386 0.957582 8.33793C1.02133 8.41199 1.1086 8.45833 1.20242 8.46806L4.5453 8.75753L4.58234 8.9549L1.59092 10.5667C1.50513 10.6097 1.43851 10.6867 1.40511 10.7813C1.3717 10.8759 1.37413 10.9807 1.41203 11.0733C1.44672 11.1679 1.51381 11.245 1.59965 11.2889C1.6855 11.3329 1.78372 11.3405 1.87461 11.3102L5.07579 10.2444C5.11597 10.3202 5.1613 10.3928 5.21146 10.4615L3.0404 13.1917C2.97581 13.266 2.93981 13.3635 2.93981 13.4648C2.93981 13.566 2.97581 13.6636 3.0404 13.7378C3.11064 13.8053 3.20185 13.8427 3.29639 13.8427C3.39093 13.8427 3.48199 13.8053 3.55222 13.7378L6.10575 11.422L6.25995 11.5338L5.21146 14.9286C5.18201 15.0248 5.18716 15.1293 5.22592 15.2217C5.26467 15.3141 5.33418 15.3879 5.42107 15.4286C5.50827 15.4681 5.60624 15.4712 5.69542 15.437C5.78461 15.4029 5.85847 15.3341 5.90217 15.2444L7.46263 12.0733C7.54149 12.0972 7.62182 12.1148 7.7031 12.126L7.98077 15.6918C7.98845 15.793 8.0312 15.8876 8.10079 15.9569C8.17037 16.0263 8.26169 16.0654 8.35692 16.0667C8.45257 16.067 8.54467 16.0283 8.61456 15.9587C8.68445 15.889 8.72695 15.7936 8.73322 15.6918L9.01074 12.126L9.18963 12.0931L10.7007 15.2838C10.7433 15.3747 10.8166 15.4449 10.9059 15.4803C10.9952 15.5157 11.0939 15.5137 11.1818 15.4746C11.2703 15.4377 11.342 15.3658 11.3822 15.274C11.4224 15.1821 11.428 15.0773 11.3977 14.9812L10.4047 11.5667L10.6082 11.422L13.1616 13.7378C13.2312 13.8067 13.3227 13.845 13.4176 13.845C13.5126 13.845 13.604 13.8067 13.6736 13.7378C13.7382 13.6636 13.774 13.566 13.774 13.4648C13.774 13.3635 13.7382 13.266 13.6736 13.1917L11.5087 10.4615L11.6073 10.3036L14.796 11.422C14.8861 11.4543 14.9844 11.4484 15.0705 11.4056C15.1566 11.3627 15.224 11.2861 15.2586 11.1917C15.2957 11.0987 15.2986 10.9942 15.2666 10.8991C15.2346 10.804 15.1701 10.7252 15.086 10.6786L12.1193 9.0207C12.1193 8.93517 12.1564 8.84964 12.1687 8.75753L15.5116 8.46806C15.6054 8.45833 15.6925 8.41199 15.7563 8.33792C15.82 8.26386 15.8559 8.16728 15.857 8.06674C15.8504 7.97608 15.816 7.89026 15.7591 7.8225C15.7023 7.75473 15.6262 7.70879 15.5424 7.69175V7.69175ZM8.39396 9.95491C7.93317 9.95317 7.49167 9.75715 7.16584 9.40959C6.84 9.06204 6.65624 8.59115 6.65462 8.09964C6.65462 7.60759 6.83785 7.1357 7.16403 6.78777C7.49021 6.43984 7.93267 6.24438 8.39396 6.24438C8.85526 6.24438 9.29772 6.43984 9.6239 6.78777C9.95008 7.1357 10.1333 7.60759 10.1333 8.09964C10.1333 8.59168 9.95008 9.06358 9.6239 9.41151C9.29772 9.75944 8.85526 9.95491 8.39396 9.95491V9.95491Z" fill="#296399"/>
</svg>
